<mxfile host="app.diagrams.net" modified="2021-11-07T10:39:21.734Z" agent="5.0 (Windows NT 10.0; Win64; x64) AppleWebKit/537.36 (KHTML, like Gecko) Chrome/95.0.4638.69 Safari/537.36" etag="8u67uk-fbqNT3Cj4pDvW" version="15.7.0" type="github">
  <diagram id="prtHgNgQTEPvFCAcTncT" name="Page-1">
    <mxGraphModel dx="1038" dy="1716" grid="1" gridSize="10" guides="1" tooltips="1" connect="1" arrows="1" fold="1" page="1" pageScale="1" pageWidth="827" pageHeight="1169" math="0" shadow="0">
      <root>
        <mxCell id="0" />
        <mxCell id="1" parent="0" />
        <mxCell id="Lrx8VCLLBNuSJkm3dd1B-1" value="Pizza Restaurant" style="swimlane;html=1;childLayout=stackLayout;resizeParent=1;resizeParentMax=0;horizontal=0;startSize=20;horizontalStack=0;" vertex="1" parent="1">
          <mxGeometry x="170" y="110" width="2610" height="370" as="geometry" />
        </mxCell>
        <mxCell id="Lrx8VCLLBNuSJkm3dd1B-2" value="Cashier" style="swimlane;html=1;startSize=20;horizontal=0;" vertex="1" parent="Lrx8VCLLBNuSJkm3dd1B-1">
          <mxGeometry x="20" width="2590" height="130" as="geometry" />
        </mxCell>
        <mxCell id="Lrx8VCLLBNuSJkm3dd1B-10" value="" style="points=[[0.145,0.145,0],[0.5,0,0],[0.855,0.145,0],[1,0.5,0],[0.855,0.855,0],[0.5,1,0],[0.145,0.855,0],[0,0.5,0]];shape=mxgraph.bpmn.event;html=1;verticalLabelPosition=bottom;labelBackgroundColor=#ffffff;verticalAlign=top;align=center;perimeter=ellipsePerimeter;outlineConnect=0;aspect=fixed;outline=standard;symbol=general;" vertex="1" parent="Lrx8VCLLBNuSJkm3dd1B-2">
          <mxGeometry x="50" y="45" width="40" height="40" as="geometry" />
        </mxCell>
        <mxCell id="Lrx8VCLLBNuSJkm3dd1B-14" value="" style="edgeStyle=orthogonalEdgeStyle;rounded=0;orthogonalLoop=1;jettySize=auto;html=1;" edge="1" parent="Lrx8VCLLBNuSJkm3dd1B-2" source="Lrx8VCLLBNuSJkm3dd1B-11" target="Lrx8VCLLBNuSJkm3dd1B-13">
          <mxGeometry relative="1" as="geometry" />
        </mxCell>
        <mxCell id="Lrx8VCLLBNuSJkm3dd1B-11" value="Enter the order" style="points=[[0.25,0,0],[0.5,0,0],[0.75,0,0],[1,0.25,0],[1,0.5,0],[1,0.75,0],[0.75,1,0],[0.5,1,0],[0.25,1,0],[0,0.75,0],[0,0.5,0],[0,0.25,0]];shape=mxgraph.bpmn.task;whiteSpace=wrap;rectStyle=rounded;size=10;taskMarker=abstract;" vertex="1" parent="Lrx8VCLLBNuSJkm3dd1B-2">
          <mxGeometry x="170" y="37.5" width="90" height="55" as="geometry" />
        </mxCell>
        <mxCell id="Lrx8VCLLBNuSJkm3dd1B-12" value="" style="edgeStyle=elbowEdgeStyle;fontSize=12;html=1;endArrow=blockThin;endFill=1;rounded=0;exitX=1;exitY=0.5;exitDx=0;exitDy=0;exitPerimeter=0;entryX=0;entryY=0.5;entryDx=0;entryDy=0;entryPerimeter=0;" edge="1" parent="Lrx8VCLLBNuSJkm3dd1B-2" source="Lrx8VCLLBNuSJkm3dd1B-10" target="Lrx8VCLLBNuSJkm3dd1B-11">
          <mxGeometry width="160" relative="1" as="geometry">
            <mxPoint x="100" y="-160" as="sourcePoint" />
            <mxPoint x="180" y="-160" as="targetPoint" />
            <Array as="points">
              <mxPoint x="140" y="50" />
              <mxPoint x="120" y="100" />
            </Array>
          </mxGeometry>
        </mxCell>
        <mxCell id="Lrx8VCLLBNuSJkm3dd1B-13" value="Request payment" style="points=[[0.25,0,0],[0.5,0,0],[0.75,0,0],[1,0.25,0],[1,0.5,0],[1,0.75,0],[0.75,1,0],[0.5,1,0],[0.25,1,0],[0,0.75,0],[0,0.5,0],[0,0.25,0]];shape=mxgraph.bpmn.task;whiteSpace=wrap;rectStyle=rounded;size=10;taskMarker=abstract;" vertex="1" parent="Lrx8VCLLBNuSJkm3dd1B-2">
          <mxGeometry x="360" y="37.5" width="90" height="55" as="geometry" />
        </mxCell>
        <mxCell id="Lrx8VCLLBNuSJkm3dd1B-35" value="Store money in the Cash Drawer" style="points=[[0.25,0,0],[0.5,0,0],[0.75,0,0],[1,0.25,0],[1,0.5,0],[1,0.75,0],[0.75,1,0],[0.5,1,0],[0.25,1,0],[0,0.75,0],[0,0.5,0],[0,0.25,0]];shape=mxgraph.bpmn.task;whiteSpace=wrap;rectStyle=rounded;size=10;taskMarker=abstract;" vertex="1" parent="Lrx8VCLLBNuSJkm3dd1B-2">
          <mxGeometry x="690" y="37.5" width="90" height="55" as="geometry" />
        </mxCell>
        <mxCell id="Lrx8VCLLBNuSJkm3dd1B-36" value="Active payment terminal" style="points=[[0.25,0,0],[0.5,0,0],[0.75,0,0],[1,0.25,0],[1,0.5,0],[1,0.75,0],[0.75,1,0],[0.5,1,0],[0.25,1,0],[0,0.75,0],[0,0.5,0],[0,0.25,0]];shape=mxgraph.bpmn.task;whiteSpace=wrap;rectStyle=rounded;size=10;taskMarker=abstract;" vertex="1" parent="Lrx8VCLLBNuSJkm3dd1B-2">
          <mxGeometry x="870" y="37.5" width="90" height="55" as="geometry" />
        </mxCell>
        <mxCell id="Lrx8VCLLBNuSJkm3dd1B-37" value="" style="points=[[0.25,0.25,0],[0.5,0,0],[0.75,0.25,0],[1,0.5,0],[0.75,0.75,0],[0.5,1,0],[0.25,0.75,0],[0,0.5,0]];shape=mxgraph.bpmn.gateway2;html=1;verticalLabelPosition=bottom;labelBackgroundColor=#ffffff;verticalAlign=top;align=center;perimeter=rhombusPerimeter;outlineConnect=0;outline=none;symbol=none;gwType=exclusive;" vertex="1" parent="Lrx8VCLLBNuSJkm3dd1B-2">
          <mxGeometry x="1020" y="45" width="40" height="40" as="geometry" />
        </mxCell>
        <mxCell id="Lrx8VCLLBNuSJkm3dd1B-38" value="" style="edgeStyle=elbowEdgeStyle;fontSize=12;html=1;endArrow=blockThin;endFill=1;rounded=0;exitX=0.5;exitY=1;exitDx=0;exitDy=0;exitPerimeter=0;entryX=0.5;entryY=1;entryDx=0;entryDy=0;entryPerimeter=0;" edge="1" parent="Lrx8VCLLBNuSJkm3dd1B-2" source="Lrx8VCLLBNuSJkm3dd1B-35" target="Lrx8VCLLBNuSJkm3dd1B-37">
          <mxGeometry width="160" relative="1" as="geometry">
            <mxPoint x="760" y="110" as="sourcePoint" />
            <mxPoint x="880" y="110" as="targetPoint" />
            <Array as="points">
              <mxPoint x="735" y="110" />
              <mxPoint x="810" y="110" />
              <mxPoint x="850" y="110" />
              <mxPoint x="830" y="60" />
              <mxPoint x="820" y="320" />
            </Array>
          </mxGeometry>
        </mxCell>
        <mxCell id="Lrx8VCLLBNuSJkm3dd1B-43" value="Create the bill" style="points=[[0.25,0,0],[0.5,0,0],[0.75,0,0],[1,0.25,0],[1,0.5,0],[1,0.75,0],[0.75,1,0],[0.5,1,0],[0.25,1,0],[0,0.75,0],[0,0.5,0],[0,0.25,0]];shape=mxgraph.bpmn.task;whiteSpace=wrap;rectStyle=rounded;size=10;taskMarker=abstract;" vertex="1" parent="Lrx8VCLLBNuSJkm3dd1B-2">
          <mxGeometry x="1140" y="37.5" width="90" height="55" as="geometry" />
        </mxCell>
        <mxCell id="Lrx8VCLLBNuSJkm3dd1B-44" value="Pass the bill to customer" style="points=[[0.25,0,0],[0.5,0,0],[0.75,0,0],[1,0.25,0],[1,0.5,0],[1,0.75,0],[0.75,1,0],[0.5,1,0],[0.25,1,0],[0,0.75,0],[0,0.5,0],[0,0.25,0]];shape=mxgraph.bpmn.task;whiteSpace=wrap;rectStyle=rounded;size=10;taskMarker=abstract;" vertex="1" parent="Lrx8VCLLBNuSJkm3dd1B-2">
          <mxGeometry x="1410" y="37.5" width="90" height="55" as="geometry" />
        </mxCell>
        <mxCell id="Lrx8VCLLBNuSJkm3dd1B-45" value="" style="edgeStyle=orthogonalEdgeStyle;rounded=0;orthogonalLoop=1;jettySize=auto;html=1;exitX=1;exitY=0.5;exitDx=0;exitDy=0;exitPerimeter=0;entryX=0;entryY=0.5;entryDx=0;entryDy=0;entryPerimeter=0;" edge="1" parent="Lrx8VCLLBNuSJkm3dd1B-2" source="Lrx8VCLLBNuSJkm3dd1B-36" target="Lrx8VCLLBNuSJkm3dd1B-37">
          <mxGeometry relative="1" as="geometry">
            <mxPoint x="990" y="91.5" as="sourcePoint" />
            <mxPoint x="1090" y="91.5" as="targetPoint" />
          </mxGeometry>
        </mxCell>
        <mxCell id="Lrx8VCLLBNuSJkm3dd1B-47" value="" style="points=[[0.25,0.25,0],[0.5,0,0],[0.75,0.25,0],[1,0.5,0],[0.75,0.75,0],[0.5,1,0],[0.25,0.75,0],[0,0.5,0]];shape=mxgraph.bpmn.gateway2;html=1;verticalLabelPosition=bottom;labelBackgroundColor=#ffffff;verticalAlign=top;align=center;perimeter=rhombusPerimeter;outlineConnect=0;outline=none;symbol=none;gwType=parallel;" vertex="1" parent="Lrx8VCLLBNuSJkm3dd1B-2">
          <mxGeometry x="1300" y="45" width="40" height="40" as="geometry" />
        </mxCell>
        <mxCell id="Lrx8VCLLBNuSJkm3dd1B-48" value="" style="edgeStyle=orthogonalEdgeStyle;rounded=0;orthogonalLoop=1;jettySize=auto;html=1;entryX=0;entryY=0.5;entryDx=0;entryDy=0;entryPerimeter=0;exitX=1;exitY=0.5;exitDx=0;exitDy=0;exitPerimeter=0;" edge="1" parent="Lrx8VCLLBNuSJkm3dd1B-2" source="Lrx8VCLLBNuSJkm3dd1B-43" target="Lrx8VCLLBNuSJkm3dd1B-47">
          <mxGeometry relative="1" as="geometry">
            <mxPoint x="1070" y="75" as="sourcePoint" />
            <mxPoint x="1150" y="75" as="targetPoint" />
            <Array as="points">
              <mxPoint x="1270" y="65" />
              <mxPoint x="1270" y="65" />
            </Array>
          </mxGeometry>
        </mxCell>
        <mxCell id="Lrx8VCLLBNuSJkm3dd1B-49" value="" style="edgeStyle=orthogonalEdgeStyle;rounded=0;orthogonalLoop=1;jettySize=auto;html=1;entryX=0;entryY=0.5;entryDx=0;entryDy=0;entryPerimeter=0;exitX=1;exitY=0.5;exitDx=0;exitDy=0;exitPerimeter=0;" edge="1" parent="Lrx8VCLLBNuSJkm3dd1B-2" source="Lrx8VCLLBNuSJkm3dd1B-47" target="Lrx8VCLLBNuSJkm3dd1B-44">
          <mxGeometry relative="1" as="geometry">
            <mxPoint x="1240" y="75" as="sourcePoint" />
            <mxPoint x="1310" y="75" as="targetPoint" />
            <Array as="points">
              <mxPoint x="1400" y="65" />
              <mxPoint x="1400" y="65" />
            </Array>
          </mxGeometry>
        </mxCell>
        <mxCell id="Lrx8VCLLBNuSJkm3dd1B-51" value="" style="points=[[0.145,0.145,0],[0.5,0,0],[0.855,0.145,0],[1,0.5,0],[0.855,0.855,0],[0.5,1,0],[0.145,0.855,0],[0,0.5,0]];shape=mxgraph.bpmn.event;html=1;verticalLabelPosition=bottom;labelBackgroundColor=#ffffff;verticalAlign=top;align=center;perimeter=ellipsePerimeter;outlineConnect=0;aspect=fixed;outline=end;symbol=terminate2;" vertex="1" parent="Lrx8VCLLBNuSJkm3dd1B-2">
          <mxGeometry x="1570" y="45" width="42.5" height="42.5" as="geometry" />
        </mxCell>
        <mxCell id="Lrx8VCLLBNuSJkm3dd1B-52" value="" style="edgeStyle=orthogonalEdgeStyle;rounded=0;orthogonalLoop=1;jettySize=auto;html=1;entryX=0;entryY=0.5;entryDx=0;entryDy=0;entryPerimeter=0;exitX=1;exitY=0.5;exitDx=0;exitDy=0;exitPerimeter=0;" edge="1" parent="Lrx8VCLLBNuSJkm3dd1B-2" source="Lrx8VCLLBNuSJkm3dd1B-44" target="Lrx8VCLLBNuSJkm3dd1B-51">
          <mxGeometry relative="1" as="geometry">
            <mxPoint x="1350" y="75" as="sourcePoint" />
            <mxPoint x="1420" y="75" as="targetPoint" />
            <Array as="points">
              <mxPoint x="1500" y="66" />
            </Array>
          </mxGeometry>
        </mxCell>
        <mxCell id="Lrx8VCLLBNuSJkm3dd1B-3" value="Pizza chef" style="swimlane;html=1;startSize=20;horizontal=0;" vertex="1" parent="Lrx8VCLLBNuSJkm3dd1B-1">
          <mxGeometry x="20" y="130" width="2590" height="120" as="geometry" />
        </mxCell>
        <mxCell id="Lrx8VCLLBNuSJkm3dd1B-50" value="Grill a pizza" style="points=[[0.25,0,0],[0.5,0,0],[0.75,0,0],[1,0.25,0],[1,0.5,0],[1,0.75,0],[0.75,1,0],[0.5,1,0],[0.25,1,0],[0,0.75,0],[0,0.5,0],[0,0.25,0]];shape=mxgraph.bpmn.task;whiteSpace=wrap;rectStyle=rounded;size=10;taskMarker=abstract;" vertex="1" parent="Lrx8VCLLBNuSJkm3dd1B-3">
          <mxGeometry x="170" y="27.5" width="90" height="55" as="geometry" />
        </mxCell>
        <mxCell id="Lrx8VCLLBNuSJkm3dd1B-4" value="Waiter" style="swimlane;html=1;startSize=20;horizontal=0;" vertex="1" parent="Lrx8VCLLBNuSJkm3dd1B-1">
          <mxGeometry x="20" y="250" width="2590" height="120" as="geometry" />
        </mxCell>
        <mxCell id="Lrx8VCLLBNuSJkm3dd1B-9" value="Customer" style="swimlane;startSize=20;horizontal=0;" vertex="1" parent="1">
          <mxGeometry x="180" y="-230" width="2600" height="240" as="geometry" />
        </mxCell>
        <mxCell id="Lrx8VCLLBNuSJkm3dd1B-5" value="" style="points=[[0.145,0.145,0],[0.5,0,0],[0.855,0.145,0],[1,0.5,0],[0.855,0.855,0],[0.5,1,0],[0.145,0.855,0],[0,0.5,0]];shape=mxgraph.bpmn.event;html=1;verticalLabelPosition=bottom;labelBackgroundColor=#ffffff;verticalAlign=top;align=center;perimeter=ellipsePerimeter;outlineConnect=0;aspect=fixed;outline=standard;symbol=general;" vertex="1" parent="Lrx8VCLLBNuSJkm3dd1B-9">
          <mxGeometry x="70" y="100" width="40" height="40" as="geometry" />
        </mxCell>
        <mxCell id="Lrx8VCLLBNuSJkm3dd1B-6" value="Choose a pizza and request an order" style="points=[[0.25,0,0],[0.5,0,0],[0.75,0,0],[1,0.25,0],[1,0.5,0],[1,0.75,0],[0.75,1,0],[0.5,1,0],[0.25,1,0],[0,0.75,0],[0,0.5,0],[0,0.25,0]];shape=mxgraph.bpmn.task;whiteSpace=wrap;rectStyle=rounded;size=10;taskMarker=abstract;" vertex="1" parent="Lrx8VCLLBNuSJkm3dd1B-9">
          <mxGeometry x="180" y="95" width="90" height="50" as="geometry" />
        </mxCell>
        <mxCell id="Lrx8VCLLBNuSJkm3dd1B-7" value="" style="edgeStyle=elbowEdgeStyle;fontSize=12;html=1;endArrow=blockThin;endFill=1;rounded=0;exitX=1;exitY=0.5;exitDx=0;exitDy=0;exitPerimeter=0;entryX=0;entryY=0.5;entryDx=0;entryDy=0;entryPerimeter=0;" edge="1" parent="Lrx8VCLLBNuSJkm3dd1B-9" source="Lrx8VCLLBNuSJkm3dd1B-5" target="Lrx8VCLLBNuSJkm3dd1B-6">
          <mxGeometry width="160" relative="1" as="geometry">
            <mxPoint x="280" y="400" as="sourcePoint" />
            <mxPoint x="440" y="400" as="targetPoint" />
            <Array as="points">
              <mxPoint x="160" y="110" />
              <mxPoint x="140" y="60" />
              <mxPoint x="130" y="320" />
            </Array>
          </mxGeometry>
        </mxCell>
        <mxCell id="Lrx8VCLLBNuSJkm3dd1B-19" value="Choose payment type" style="points=[[0.25,0,0],[0.5,0,0],[0.75,0,0],[1,0.25,0],[1,0.5,0],[1,0.75,0],[0.75,1,0],[0.5,1,0],[0.25,1,0],[0,0.75,0],[0,0.5,0],[0,0.25,0]];shape=mxgraph.bpmn.task;whiteSpace=wrap;rectStyle=rounded;size=10;taskMarker=abstract;" vertex="1" parent="Lrx8VCLLBNuSJkm3dd1B-9">
          <mxGeometry x="370" y="92.5" width="90" height="55" as="geometry" />
        </mxCell>
        <mxCell id="Lrx8VCLLBNuSJkm3dd1B-27" value="" style="points=[[0.25,0.25,0],[0.5,0,0],[0.75,0.25,0],[1,0.5,0],[0.75,0.75,0],[0.5,1,0],[0.25,0.75,0],[0,0.5,0]];shape=mxgraph.bpmn.gateway2;html=1;verticalLabelPosition=bottom;labelBackgroundColor=#ffffff;verticalAlign=top;align=center;perimeter=rhombusPerimeter;outlineConnect=0;outline=none;symbol=none;gwType=exclusive;" vertex="1" parent="Lrx8VCLLBNuSJkm3dd1B-9">
          <mxGeometry x="580" y="100" width="40" height="40" as="geometry" />
        </mxCell>
        <mxCell id="Lrx8VCLLBNuSJkm3dd1B-28" value="" style="edgeStyle=elbowEdgeStyle;fontSize=12;html=1;endArrow=blockThin;endFill=1;rounded=0;exitX=1;exitY=0.5;exitDx=0;exitDy=0;exitPerimeter=0;entryX=0;entryY=0.5;entryDx=0;entryDy=0;entryPerimeter=0;" edge="1" parent="Lrx8VCLLBNuSJkm3dd1B-9" source="Lrx8VCLLBNuSJkm3dd1B-19" target="Lrx8VCLLBNuSJkm3dd1B-27">
          <mxGeometry width="160" relative="1" as="geometry">
            <mxPoint x="500" y="130" as="sourcePoint" />
            <mxPoint x="570" y="130" as="targetPoint" />
            <Array as="points">
              <mxPoint x="550" y="120" />
              <mxPoint x="530" y="70" />
              <mxPoint x="520" y="330" />
            </Array>
          </mxGeometry>
        </mxCell>
        <mxCell id="Lrx8VCLLBNuSJkm3dd1B-29" value="Pay with Card" style="points=[[0.25,0,0],[0.5,0,0],[0.75,0,0],[1,0.25,0],[1,0.5,0],[1,0.75,0],[0.75,1,0],[0.5,1,0],[0.25,1,0],[0,0.75,0],[0,0.5,0],[0,0.25,0]];shape=mxgraph.bpmn.task;whiteSpace=wrap;rectStyle=rounded;size=10;taskMarker=abstract;" vertex="1" parent="Lrx8VCLLBNuSJkm3dd1B-9">
          <mxGeometry x="880" y="20" width="90" height="55" as="geometry" />
        </mxCell>
        <mxCell id="Lrx8VCLLBNuSJkm3dd1B-30" value="Pay with Cash" style="points=[[0.25,0,0],[0.5,0,0],[0.75,0,0],[1,0.25,0],[1,0.5,0],[1,0.75,0],[0.75,1,0],[0.5,1,0],[0.25,1,0],[0,0.75,0],[0,0.5,0],[0,0.25,0]];shape=mxgraph.bpmn.task;whiteSpace=wrap;rectStyle=rounded;size=10;taskMarker=abstract;" vertex="1" parent="Lrx8VCLLBNuSJkm3dd1B-9">
          <mxGeometry x="700" y="160" width="90" height="55" as="geometry" />
        </mxCell>
        <mxCell id="Lrx8VCLLBNuSJkm3dd1B-31" value="" style="edgeStyle=elbowEdgeStyle;fontSize=12;html=1;endArrow=blockThin;endFill=1;rounded=0;exitX=0.5;exitY=1;exitDx=0;exitDy=0;exitPerimeter=0;entryX=0;entryY=0.5;entryDx=0;entryDy=0;entryPerimeter=0;" edge="1" parent="Lrx8VCLLBNuSJkm3dd1B-9" source="Lrx8VCLLBNuSJkm3dd1B-27" target="Lrx8VCLLBNuSJkm3dd1B-30">
          <mxGeometry width="160" relative="1" as="geometry">
            <mxPoint x="610" y="187" as="sourcePoint" />
            <mxPoint x="680" y="187" as="targetPoint" />
            <Array as="points">
              <mxPoint x="600" y="180" />
              <mxPoint x="660" y="177" />
              <mxPoint x="640" y="127" />
              <mxPoint x="630" y="387" />
            </Array>
          </mxGeometry>
        </mxCell>
        <mxCell id="Lrx8VCLLBNuSJkm3dd1B-32" value="" style="edgeStyle=elbowEdgeStyle;fontSize=12;html=1;endArrow=blockThin;endFill=1;rounded=0;exitX=0.5;exitY=0;exitDx=0;exitDy=0;exitPerimeter=0;entryX=0;entryY=0.5;entryDx=0;entryDy=0;entryPerimeter=0;" edge="1" parent="Lrx8VCLLBNuSJkm3dd1B-9" source="Lrx8VCLLBNuSJkm3dd1B-27" target="Lrx8VCLLBNuSJkm3dd1B-29">
          <mxGeometry width="160" relative="1" as="geometry">
            <mxPoint x="690" y="60" as="sourcePoint" />
            <mxPoint x="760" y="60" as="targetPoint" />
            <Array as="points">
              <mxPoint x="600" y="40" />
              <mxPoint x="740" y="50" />
              <mxPoint x="720" />
              <mxPoint x="710" y="260" />
            </Array>
          </mxGeometry>
        </mxCell>
        <mxCell id="Lrx8VCLLBNuSJkm3dd1B-33" value="Card" style="text;html=1;align=center;verticalAlign=middle;resizable=0;points=[];autosize=1;strokeColor=none;fillColor=none;" vertex="1" parent="Lrx8VCLLBNuSJkm3dd1B-9">
          <mxGeometry x="710" y="20" width="40" height="20" as="geometry" />
        </mxCell>
        <mxCell id="Lrx8VCLLBNuSJkm3dd1B-34" value="Cash" style="text;html=1;align=center;verticalAlign=middle;resizable=0;points=[];autosize=1;strokeColor=none;fillColor=none;" vertex="1" parent="Lrx8VCLLBNuSJkm3dd1B-9">
          <mxGeometry x="630" y="195" width="40" height="20" as="geometry" />
        </mxCell>
        <mxCell id="Lrx8VCLLBNuSJkm3dd1B-22" value="" style="edgeStyle=elbowEdgeStyle;fontSize=12;html=1;endFill=0;startFill=0;endSize=6;startSize=6;dashed=1;dashPattern=1 4;endArrow=openThin;startArrow=none;rounded=0;exitX=0.5;exitY=0;exitDx=0;exitDy=0;exitPerimeter=0;entryX=0.5;entryY=1;entryDx=0;entryDy=0;entryPerimeter=0;" edge="1" parent="1" source="Lrx8VCLLBNuSJkm3dd1B-13" target="Lrx8VCLLBNuSJkm3dd1B-19">
          <mxGeometry width="160" relative="1" as="geometry">
            <mxPoint x="640" y="130" as="sourcePoint" />
            <mxPoint x="575" y="-60" as="targetPoint" />
          </mxGeometry>
        </mxCell>
        <mxCell id="Lrx8VCLLBNuSJkm3dd1B-23" value="Payment &lt;br&gt;request" style="text;html=1;align=center;verticalAlign=middle;resizable=0;points=[];autosize=1;strokeColor=none;fillColor=none;" vertex="1" parent="1">
          <mxGeometry x="610" y="35" width="60" height="30" as="geometry" />
        </mxCell>
        <mxCell id="Lrx8VCLLBNuSJkm3dd1B-25" value="" style="edgeStyle=elbowEdgeStyle;fontSize=12;html=1;endFill=0;startFill=0;endSize=6;startSize=6;dashed=1;dashPattern=1 4;endArrow=openThin;startArrow=none;rounded=0;exitX=0.5;exitY=1;exitDx=0;exitDy=0;exitPerimeter=0;entryX=0.5;entryY=0;entryDx=0;entryDy=0;entryPerimeter=0;" edge="1" parent="1" source="Lrx8VCLLBNuSJkm3dd1B-6" target="Lrx8VCLLBNuSJkm3dd1B-11">
          <mxGeometry width="160" relative="1" as="geometry">
            <mxPoint x="605" y="157.5" as="sourcePoint" />
            <mxPoint x="605" y="-72.5" as="targetPoint" />
          </mxGeometry>
        </mxCell>
        <mxCell id="Lrx8VCLLBNuSJkm3dd1B-26" value="Order" style="text;html=1;align=center;verticalAlign=middle;resizable=0;points=[];autosize=1;strokeColor=none;fillColor=none;" vertex="1" parent="1">
          <mxGeometry x="414" y="40" width="50" height="20" as="geometry" />
        </mxCell>
        <mxCell id="Lrx8VCLLBNuSJkm3dd1B-40" value="" style="edgeStyle=elbowEdgeStyle;fontSize=12;html=1;endFill=0;startFill=0;endSize=6;startSize=6;dashed=1;dashPattern=1 4;endArrow=openThin;startArrow=none;rounded=0;exitX=0.5;exitY=1;exitDx=0;exitDy=0;exitPerimeter=0;entryX=0.5;entryY=0;entryDx=0;entryDy=0;entryPerimeter=0;" edge="1" parent="1" source="Lrx8VCLLBNuSJkm3dd1B-29" target="Lrx8VCLLBNuSJkm3dd1B-36">
          <mxGeometry width="160" relative="1" as="geometry">
            <mxPoint x="1110" y="-140" as="sourcePoint" />
            <mxPoint x="1110" y="92.5" as="targetPoint" />
          </mxGeometry>
        </mxCell>
        <mxCell id="Lrx8VCLLBNuSJkm3dd1B-39" value="" style="edgeStyle=elbowEdgeStyle;fontSize=12;html=1;endFill=0;startFill=0;endSize=6;startSize=6;dashed=1;dashPattern=1 4;endArrow=openThin;startArrow=none;rounded=0;exitX=0.5;exitY=1;exitDx=0;exitDy=0;exitPerimeter=0;entryX=0.5;entryY=0;entryDx=0;entryDy=0;entryPerimeter=0;" edge="1" parent="1" source="Lrx8VCLLBNuSJkm3dd1B-30" target="Lrx8VCLLBNuSJkm3dd1B-35">
          <mxGeometry width="160" relative="1" as="geometry">
            <mxPoint x="960" y="-30" as="sourcePoint" />
            <mxPoint x="960" y="202.5" as="targetPoint" />
          </mxGeometry>
        </mxCell>
        <mxCell id="Lrx8VCLLBNuSJkm3dd1B-41" value="Money" style="text;html=1;align=center;verticalAlign=middle;resizable=0;points=[];autosize=1;strokeColor=none;fillColor=none;" vertex="1" parent="1">
          <mxGeometry x="935" y="50" width="50" height="20" as="geometry" />
        </mxCell>
        <mxCell id="Lrx8VCLLBNuSJkm3dd1B-42" value="Card" style="text;html=1;align=center;verticalAlign=middle;resizable=0;points=[];autosize=1;strokeColor=none;fillColor=none;" vertex="1" parent="1">
          <mxGeometry x="1120" y="50" width="40" height="20" as="geometry" />
        </mxCell>
        <mxCell id="Lrx8VCLLBNuSJkm3dd1B-46" value="" style="edgeStyle=orthogonalEdgeStyle;rounded=0;orthogonalLoop=1;jettySize=auto;html=1;entryX=0;entryY=0.5;entryDx=0;entryDy=0;entryPerimeter=0;" edge="1" parent="1" target="Lrx8VCLLBNuSJkm3dd1B-43">
          <mxGeometry relative="1" as="geometry">
            <mxPoint x="1250" y="175" as="sourcePoint" />
            <mxPoint x="1220" y="185" as="targetPoint" />
          </mxGeometry>
        </mxCell>
      </root>
    </mxGraphModel>
  </diagram>
</mxfile>
